# WaveFront *.obj file (generated by CINEMA 4D)

mtllib ./3dBackground.mtl

v -200 -75 100
v -200 75 100
v 200 -75 100
v 200 75 100
v 200 -75 -100
v 200 75 -100
v -200 -75 -100
v -200 75 -100
# 8 vertices

vn 0 0 -1
vn -1 0 0
vn 0 0 1
vn 1 0 0
vn 0 1 0
# 5 normals

vt 0 0 0
vt 1 0 0
vt 1 1 0
vt 0 1 0
# 4 texture coordinates

o Cube
usemtl default
f 2/4/1 4/3/1 3/2/1 1/1/1
f 4/4/2 6/3/2 5/2/2 3/1/2
f 6/4/3 8/3/3 7/2/3 5/1/3
f 8/4/4 2/3/4 1/2/4 7/1/4
f 1/4/5 3/3/5 5/2/5 7/1/5

